<?xml version="1.0" encoding="UTF-8"?>

<svg class="css-1j8o68f" width="80.541" height="80.541" viewBox="0 0 70 70" xmlns="http://www.w3.org/2000/svg">
<!-- <svg class="css-1j8o68f" width="363" height="80.541" viewBox="0 0 288 63.9" xmlns="http://www.w3.org/2000/svg"> -->
<g transform="scale(.9)" fill="#f8b500" featurekey="symbolContainer">
<rect width="75" height="71" rx="10" ry="10" xmlns="http://www.w3.org/2000/svg"/>
</g>
<g transform="matrix(.7273 0 0 .7273 13.818 3.3339)" fill="#393e46" featurekey="monogramFeature-0">
<path d="m41.414 20.061c4.674 0.047051 9.8868 0.42106 9.7038 0.96384-1.0468 6.1488-1.9175 12.405-2.6465 18.683-0.72198 6.2808-1.3093 12.594-1.6696 18.921-0.10108 1.3729-5.1889 1.8953-5.6884 0.51733-1.3493-5.6744-2.5086-11.392-3.5573-17.14l-7.749 10.557c0.027949 0.14619 0.060354 0.28981 0.087654 0.436 0.23514 1.397-4.6607 2.8791-5.4139 1.8221-2.2124-4.149-4.885-8.1378-7.6362-12.185-1.0525 5.5931-2.2976 11.122-3.7511 16.563-0.37752 1.3347-5.4551 0.7233-5.675-0.64956-0.45252-12.345-1.9448-24.5-4.4134-36.295-0.15-0.38894 2.7755-0.78936 6.2262-1.0481 4.7318-1.7555 11.576-3.7429 11.558-3.183 0.83706 5.3216 2.5315 11.066 4.2799 16.881 0.64254 2.161 1.3099 4.3397 1.955 6.546l7.884-23.951c0.06867-0.43793 3.1525 0.88722 6.5058 2.5601z"/>
</g>
<!-- <g transform="matrix(.90719 0 0 .90719 86.548 8.1147)" fill="#f7f7f7" featurekey="nameFeature-0">
<path d="m23.698 31.901c0 5.4688e-4 0 0.0010938 5.4688e-4 0.0016406v5.9014c0 1.2128-0.98328 2.196-2.196 2.196s-2.196-0.98328-2.196-2.196v-4.9925l-13.314-13.314v18.306c0 1.2128-0.98328 2.196-2.196 2.196s-2.196-0.98328-2.196-2.196v-23.608c0-0.88832 0.535-1.6891 1.3555-2.0289 0.82104-0.33957 1.7654-0.15207 2.3932 0.476l7.3 7.3 7.3-7.3c0.6278-0.62808 1.5726-0.8164 2.3932-0.476 0.82052 0.33984 1.3555 1.1406 1.3555 2.0289v17.705zm-7.943-8.8518 3.5513 3.551v-7.1024zm28.291-3.637c1.2128 0 2.196 0.98328 2.196 2.196v16.196c0 1.2128-0.98328 2.196-2.196 2.196-1.1071 0-2.0201-0.81968-2.1716-1.885-1.677 1.1856-3.721 1.885-5.9264 1.885-5.6764 0-10.294-4.6176-10.294-10.294s4.6176-10.294 10.294-10.294c2.2054 0 4.2492 0.69944 5.9264 1.885 0.15152-1.0654 1.0645-1.885 2.1716-1.885zm-8.098 16.196c3.2543 0 5.902-2.6476 5.902-5.902s-2.6476-5.902-5.902-5.902-5.902 2.6476-5.902 5.902 2.6476 5.902 5.902 5.902zm20.22-16.196c4.4004 0 7.98 3.5802 7.98 7.9804v10.412c0 1.2128-0.98328 2.196-2.196 2.196s-2.196-0.98328-2.196-2.196v-10.412c0-1.9784-1.6094-3.5881-3.5881-3.5881s-3.5881 1.6094-3.5881 3.5881v10.412c0 1.2128-0.98328 2.196-2.196 2.196s-2.196-0.98328-2.196-2.196v-16.196c0-1.2128 0.98328-2.196 2.196-2.196 0.78592 0 1.4733 0.4142 1.8615 1.0349 1.1592-0.65744 2.4975-1.0349 3.9227-1.0349zm28.346 0c1.2128 0 2.196 0.98328 2.196 2.196v16.196c0 1.2128-0.98328 2.196-2.196 2.196-1.1071 0-2.0201-0.81968-2.1716-1.885-1.677 1.1856-3.721 1.885-5.9264 1.885-5.6764 0-10.294-4.6176-10.294-10.294s4.6176-10.294 10.294-10.294c2.2054 0 4.2492 0.69944 5.9264 1.885 0.15152-1.0654 1.0645-1.885 2.1716-1.885zm-8.098 16.196c3.2543 0 5.902-2.6476 5.902-5.902s-2.6476-5.902-5.902-5.902-5.902 2.6476-5.902 5.902 2.6476 5.902 5.902 5.902zm26.183-8.098c3.4434 0 6.2452 2.8016 6.2452 6.2452s-2.8016 6.2452-6.2452 6.2452h-8.098c-1.2128 0-2.196-0.98328-2.196-2.196s0.98328-2.196 2.196-2.196h8.098c1.0217 0 1.8529-0.8312 1.8529-1.8529s-0.8312-1.8529-1.8529-1.8529h-8.098c-3.4434 0-6.2452-2.8016-6.2452-6.2452s2.8016-6.2452 6.2452-6.2452h8.098c1.2128 0 2.196 0.98328 2.196 2.196s-0.98328 2.196-2.196 2.196h-8.098c-1.0217 0-1.8529 0.8312-1.8529 1.8529s0.8312 1.8529 1.8529 1.8529h8.098zm18.25 8.098c1.2128 0 2.1961 0.98332 2.1961 2.1961s-0.98328 2.196-2.196 2.196c-5.7668 0-10.459-4.692-10.459-10.459v-15.345c0-1.2128 0.98328-2.196 2.196-2.196s2.196 0.98328 2.196 2.196v5.2217h6.0666c1.2128 0 2.196 0.98328 2.196 2.196s-0.98328 2.196-2.196 2.196h-6.0666v5.7312c0 3.3452 2.7215 6.0668 6.0668 6.0668zm14.449-16.196c1.2128 0 2.196 0.98328 2.196 2.196s-0.98328 2.196-2.196 2.196c-3.2543 0-5.902 2.6476-5.902 5.902v8.098c0 1.2128-0.98328 2.196-2.196 2.196s-2.196-0.98328-2.196-2.196v-16.196c0-1.2128 0.98328-2.196 2.196-2.196 1.1071 0 2.0201 0.81996 2.1716 1.885 1.677-1.1856 3.721-1.885 5.9264-1.885zm20.512 0c1.2128 0 2.196 0.98328 2.196 2.196v16.196c0 1.2128-0.98328 2.196-2.196 2.196-1.1071 0-2.0201-0.81968-2.1716-1.885-1.677 1.1856-3.721 1.885-5.9264 1.885-5.6764 0-10.294-4.6176-10.294-10.294s4.6176-10.294 10.294-10.294c2.2054 0 4.2492 0.69944 5.9264 1.885 0.15152-1.0654 1.0645-1.885 2.1716-1.885zm-8.098 16.196c3.2543 0 5.902-2.6476 5.902-5.902s-2.6476-5.902-5.902-5.902-5.902 2.6476-5.902 5.902 2.6476 5.902 5.902 5.902zm22.699 0c1.2128 0 2.1961 0.98332 2.1961 2.1961s-0.98328 2.196-2.196 2.196c-5.7668 0-10.459-4.692-10.459-10.459v-15.345c0-1.2128 0.98328-2.196 2.196-2.196s2.196 0.98328 2.196 2.196v5.2217h6.0666c1.2128 0 2.196 0.98328 2.196 2.196s-0.98328 2.196-2.196 2.196h-6.0666v5.7312c0 3.3452 2.7215 6.0668 6.0668 6.0668zm6.351-16.196c1.2128 0 2.196 0.98328 2.196 2.196v16.196c0 1.2128-0.98328 2.196-2.196 2.196s-2.196-0.98328-2.196-2.196v-16.196c0-1.2128 0.98328-2.196 2.196-2.196zm-2.0286-4.376c-0.054884-0.13176-0.096056-0.2718-0.12352-0.4118-0.030195-0.14-0.043908-0.28551-0.043908-0.42824s0.013711-0.28824 0.043908-0.42824c0.027461-0.14 0.068632-0.28 0.12352-0.41176s0.12352-0.26078 0.20312-0.37883c0.079608-0.12078 0.1702-0.23332 0.27176-0.33488s0.2141-0.19215 0.33488-0.27176c0.11805-0.079608 0.24707-0.14824 0.37883-0.20312s0.27176-0.096056 0.41176-0.12352c0.71372-0.14551 1.4714 0.090588 1.982 0.59844 0.098828 0.10156 0.19215 0.2141 0.27176 0.33488 0.079608 0.11805 0.14824 0.24707 0.20312 0.37883s0.096056 0.27176 0.12352 0.41176c0.030195 0.14 0.043908 0.28551 0.043908 0.42824s-0.013711 0.28824-0.043908 0.42824c-0.027461 0.14-0.068632 0.28-0.12352 0.41176s-0.12352 0.26078-0.20312 0.37883c-0.079608 0.12078-0.17293 0.23332-0.27176 0.33488-0.10156 0.10156-0.2141 0.19215-0.33488 0.27176-0.11805 0.079608-0.24707 0.14824-0.37883 0.20312s-0.27176 0.096056-0.41176 0.12352c-0.14 0.030195-0.28551 0.043908-0.42824 0.043908s-0.28824-0.013711-0.42824-0.043908c-0.14-0.027461-0.28-0.068632-0.41176-0.12352s-0.26078-0.12352-0.37883-0.20312c-0.12078-0.079608-0.23332-0.1702-0.33488-0.27176s-0.19215-0.2141-0.27176-0.33488c-0.079608-0.11805-0.14824-0.24707-0.20312-0.37883zm25.582 4.608c1.0846 0.54216 1.5243 1.8614 0.98192 2.946l-8.098 16.196c-0.37195 0.74392-1.1324 1.2139-1.9641 1.2139s-1.5922-0.46996-1.9641-1.2139l-8.098-16.196c-0.5424-1.0848-0.10266-2.4039 0.98192-2.9463 1.0848-0.5424 2.4039-0.10293 2.9463 0.9822l6.134 12.268 6.134-12.267c0.54216-1.0851 1.8612-1.5241 2.9463-0.9822zm11.453-0.232c5.6764 0 10.294 4.6176 10.294 10.294 0 1.2128-0.98328 2.196-2.196 2.196h-13.576c0.87292 2.17 2.9995 3.7059 5.4784 3.7059 1.5765 0 3.0586-0.6138 4.1732-1.7286 0.85784-0.85756 2.248-0.85732 3.1058 0 0.85784 0.85784 0.85756 2.2482 0 3.1058-1.9446 1.9443-4.5296 3.0149-7.2792 3.0149-5.6764 0-10.294-4.6176-10.294-10.294s4.6176-10.294 10.294-10.294zm-5.4784 8.098h10.957c-0.87292-2.17-2.9995-3.7059-5.4784-3.7059s-4.6056 1.5359-5.4784 3.7059z"/>
</g> -->
</svg>
